<svg xmlns="http://www.w3.org/2000/svg" viewBox="0 0 1000 420" width="1000" height="420">
  <defs>
    <marker id="arrow" markerWidth="8" markerHeight="6" refX="8" refY="3" orient="auto">
      <path d="M0,0 L8,3 L0,6 Z" fill="#6366f1"/>
    </marker>
    <marker id="arrow-fail" markerWidth="8" markerHeight="6" refX="8" refY="3" orient="auto">
      <path d="M0,0 L8,3 L0,6 Z" fill="#ef4444"/>
    </marker>
    <marker id="arrow-pass" markerWidth="8" markerHeight="6" refX="8" refY="3" orient="auto">
      <path d="M0,0 L8,3 L0,6 Z" fill="#22c55e"/>
    </marker>
  </defs>

  <!-- Background -->
  <rect width="1000" height="420" fill="#0f172a" rx="4"/>

  <!-- Row 1: LLM Agents -->
  <!-- Spec -->
  <rect x="40" y="30" width="110" height="56" rx="4" fill="#1e293b" stroke="#10b981" stroke-width="1"/>
  <text x="95" y="52" text-anchor="middle" fill="#e2e8f0" font-family="JetBrains Mono,monospace" font-size="10">Spec</text>
  <text x="95" y="68" text-anchor="middle" fill="#10b981" font-family="JetBrains Mono,monospace" font-size="8">Opus 4.6</text>
  <!-- Arrow -->
  <line x1="150" y1="58" x2="195" y2="58" stroke="#6366f1" stroke-width="1.5" marker-end="url(#arrow)"/>

  <!-- Planner -->
  <rect x="200" y="30" width="110" height="56" rx="4" fill="#1e293b" stroke="#10b981" stroke-width="1"/>
  <text x="255" y="52" text-anchor="middle" fill="#e2e8f0" font-family="JetBrains Mono,monospace" font-size="10">Planner</text>
  <text x="255" y="68" text-anchor="middle" fill="#10b981" font-family="JetBrains Mono,monospace" font-size="8">Sonnet 5</text>
  <!-- Arrow -->
  <line x1="310" y1="58" x2="355" y2="58" stroke="#6366f1" stroke-width="1.5" marker-end="url(#arrow)"/>

  <!-- Impl -->
  <rect x="360" y="30" width="110" height="56" rx="4" fill="#1e293b" stroke="#f59e0b" stroke-width="1"/>
  <text x="415" y="52" text-anchor="middle" fill="#e2e8f0" font-family="JetBrains Mono,monospace" font-size="10">Implementation</text>
  <text x="415" y="68" text-anchor="middle" fill="#f59e0b" font-family="JetBrains Mono,monospace" font-size="8">GPT-5.6 Terra</text>
  <!-- Arrow -->
  <line x1="470" y1="58" x2="515" y2="58" stroke="#6366f1" stroke-width="1.5" marker-end="url(#arrow)"/>

  <!-- Impact -->
  <rect x="520" y="30" width="110" height="56" rx="4" fill="#1e293b" stroke="#334155" stroke-width="1"/>
  <text x="575" y="52" text-anchor="middle" fill="#e2e8f0" font-family="JetBrains Mono,monospace" font-size="10">Impact</text>
  <text x="575" y="68" text-anchor="middle" fill="#94a3b8" font-family="JetBrains Mono,monospace" font-size="8">AST Analysis</text>
  <!-- Arrow down-right -->
  <polyline points="630,58 650,58 650,130 655,130" fill="none" stroke="#6366f1" stroke-width="1.5" marker-end="url(#arrow)"/>

  <!-- Row 2: Evidence Checks -->
  <text x="50" y="162" fill="#64748b" font-family="JetBrains Mono,monospace" font-size="9">Evidence Executors</text>
  <line x1="50" y1="168" x2="170" y2="168" stroke="#334155" stroke-width="0.5"/>

  <!-- formatting -->
  <rect x="40" y="185" width="105" height="42" rx="3" fill="#1e293b" stroke="#334155" stroke-width="1"/>
  <text x="92" y="204" text-anchor="middle" fill="#e2e8f0" font-family="JetBrains Mono,monospace" font-size="9">formatting</text>
  <text x="92" y="218" text-anchor="middle" fill="#ef4444" font-family="JetBrains Mono,monospace" font-size="7">FAIL</text>

  <line x1="155" y1="206" x2="195" y2="206" stroke="#6366f1" stroke-width="1.5" marker-end="url(#arrow)"/>

  <!-- lint -->
  <rect x="200" y="185" width="105" height="42" rx="3" fill="#1e293b" stroke="#334155" stroke-width="1"/>
  <text x="252" y="204" text-anchor="middle" fill="#e2e8f0" font-family="JetBrains Mono,monospace" font-size="9">lint</text>
  <text x="252" y="218" text-anchor="middle" fill="#ef4444" font-family="JetBrains Mono,monospace" font-size="7">FAIL</text>

  <line x1="315" y1="206" x2="355" y2="206" stroke="#6366f1" stroke-width="1.5" marker-end="url(#arrow)"/>

  <!-- type_check -->
  <rect x="360" y="185" width="105" height="42" rx="3" fill="#1e293b" stroke="#334155" stroke-width="1"/>
  <text x="412" y="204" text-anchor="middle" fill="#e2e8f0" font-family="JetBrains Mono,monospace" font-size="9">type_check</text>
  <text x="412" y="218" text-anchor="middle" fill="#ef4444" font-family="JetBrains Mono,monospace" font-size="7">FAIL</text>

  <line x1="475" y1="206" x2="515" y2="206" stroke="#6366f1" stroke-width="1.5" marker-end="url(#arrow)"/>

  <!-- pytest -->
  <rect x="520" y="185" width="105" height="42" rx="3" fill="#1e293b" stroke="#334155" stroke-width="1"/>
  <text x="572" y="204" text-anchor="middle" fill="#e2e8f0" font-family="JetBrains Mono,monospace" font-size="9">pytest</text>
  <text x="572" y="218" text-anchor="middle" fill="#ef4444" font-family="JetBrains Mono,monospace" font-size="7">FAIL</text>

  <line x1="635" y1="206" x2="675" y2="206" stroke="#6366f1" stroke-width="1.5" marker-end="url(#arrow)"/>

  <!-- secrets -->
  <rect x="680" y="185" width="105" height="42" rx="3" fill="#1e293b" stroke="#334155" stroke-width="1"/>
  <text x="732" y="204" text-anchor="middle" fill="#e2e8f0" font-family="JetBrains Mono,monospace" font-size="9">secrets</text>
  <text x="732" y="218" text-anchor="middle" fill="#22c55e" font-family="JetBrains Mono,monospace" font-size="7">PASS</text>

  <!-- Arrow down from middle of evidence row -->
  <polyline points="460,227 460,250 460,270" fill="none" stroke="#6366f1" stroke-width="1.5" marker-end="url(#arrow)"/>

  <!-- Row 3: Review + Decision -->
  <!-- Adversarial -->
  <rect x="140" y="280" width="130" height="52" rx="4" fill="#1e293b" stroke="#f59e0b" stroke-width="1"/>
  <text x="205" y="302" text-anchor="middle" fill="#e2e8f0" font-family="JetBrains Mono,monospace" font-size="10">Adversarial</text>
  <text x="205" y="318" text-anchor="middle" fill="#f59e0b" font-family="JetBrains Mono,monospace" font-size="8">Gemini 3.5 Flash</text>

  <line x1="280" y1="306" x2="325" y2="306" stroke="#6366f1" stroke-width="1.5" marker-end="url(#arrow)"/>

  <!-- Independent -->
  <rect x="330" y="280" width="130" height="52" rx="4" fill="#1e293b" stroke="#f59e0b" stroke-width="1"/>
  <text x="395" y="302" text-anchor="middle" fill="#e2e8f0" font-family="JetBrains Mono,monospace" font-size="10">Independent</text>
  <text x="395" y="318" text-anchor="middle" fill="#f59e0b" font-family="JetBrains Mono,monospace" font-size="8">Haiku 4.5</text>

  <line x1="470" y1="306" x2="515" y2="306" stroke="#6366f1" stroke-width="1.5" marker-end="url(#arrow)"/>

  <!-- Decision Engine -->
  <rect x="520" y="268" width="140" height="76" rx="4" fill="#064e3b" stroke="#10b981" stroke-width="2"/>
  <text x="590" y="296" text-anchor="middle" fill="#e2e8f0" font-family="JetBrains Mono,monospace" font-size="11" font-weight="bold">Decision</text>
  <text x="590" y="314" text-anchor="middle" fill="#10b981" font-family="JetBrains Mono,monospace" font-size="9">DETERMINISTIC</text>
  <text x="590" y="332" text-anchor="middle" fill="#34d399" font-family="JetBrains Mono,monospace" font-size="8">repair_required</text>

  <!-- Legend -->
  <rect x="750" y="290" width="12" height="12" rx="2" fill="none" stroke="#10b981" stroke-width="1"/>
  <text x="770" y="300" fill="#64748b" font-family="JetBrains Mono,monospace" font-size="8">LLM agent</text>
  <rect x="750" y="310" width="12" height="12" rx="2" fill="#064e3b" stroke="#10b981" stroke-width="2"/>
  <text x="770" y="320" fill="#64748b" font-family="JetBrains Mono,monospace" font-size="8">Deterministic</text>
  <rect x="750" y="330" width="12" height="12" rx="2" fill="none" stroke="#f59e0b" stroke-width="1"/>
  <text x="770" y="340" fill="#64748b" font-family="JetBrains Mono,monospace" font-size="8">Stub/Advisory</text>
  <rect x="750" y="350" width="12" height="12" rx="2" fill="#1e293b" stroke="#334155" stroke-width="1"/>
  <text x="770" y="360" fill="#64748b" font-family="JetBrains Mono,monospace" font-size="8">Evidence exec</text>
</svg>
